<?xml version="1.0" encoding="UTF-8" standalone="no"?>
<svg
   xmlns:dc="http://purl.org/dc/elements/1.1/"
   xmlns:cc="http://creativecommons.org/ns#"
   xmlns:rdf="http://www.w3.org/1999/02/22-rdf-syntax-ns#"
   xmlns:svg="http://www.w3.org/2000/svg"
   xmlns="http://www.w3.org/2000/svg"
   id="svg8"
   version="1.1"
   viewBox="0 0 43.922789 37.306946"
   height="37.306946mm"
   width="43.922791mm">
  <defs
     id="defs2" />
  <metadata
     id="metadata5">
    <rdf:RDF>
      <cc:Work
         rdf:about="">
        <dc:format>image/svg+xml</dc:format>
        <dc:type
           rdf:resource="http://purl.org/dc/dcmitype/StillImage" />
        <dc:title></dc:title>
      </cc:Work>
    </rdf:RDF>
  </metadata>
  <g
     transform="translate(-35.681102,-147.2725)"
     id="layer1">
    <g
       id="g1533">
      <g
         id="text817-4"
         style="font-style:normal;font-weight:normal;font-size:7.05555534px;line-height:125%;font-family:'Times New Roman';-inkscape-font-specification:'Times New Roman';text-align:end;letter-spacing:0px;word-spacing:0px;text-anchor:end;fill:#124559;fill-opacity:1;stroke:#124559;stroke-width:1.5;stroke-linecap:butt;stroke-linejoin:miter;stroke-miterlimit:4;stroke-dasharray:none;stroke-opacity:1"
         aria-label="ql">
        <path
           id="path847"
           style="font-style:normal;font-variant:normal;font-weight:bold;font-stretch:normal;font-size:35.27777863px;font-family:Comfortaa;-inkscape-font-specification:'Comfortaa Bold';fill:#124559;fill-opacity:1;stroke:#124559;stroke-width:1.5;stroke-miterlimit:4;stroke-dasharray:none;stroke-opacity:1"
           d="m 46.167769,156.13639 q 2.716389,0 4.903611,1.30528 2.2225,1.27 3.4925,3.52778 1.305278,2.2225 1.305278,4.97416 v 16.08667 q 0,0.81139 -0.493889,1.30528 -0.493889,0.49389 -1.305277,0.49389 -0.776112,0 -1.305278,-0.49389 -0.493889,-0.49389 -0.493889,-1.30528 v -9.525 q -1.234722,1.51695 -2.998611,2.36361 -1.763889,0.84667 -3.81,0.84667 -2.540001,0 -4.621389,-1.27 -2.046112,-1.27 -3.245556,-3.4925 -1.164167,-2.25778 -1.164167,-5.00945 0,-2.75166 1.27,-4.97416 1.27,-2.25778 3.4925,-3.52778 2.257778,-1.30528 4.974167,-1.30528 z m 0,16.40417 q 1.763889,0 3.175,-0.84667 1.446389,-0.88194 2.257778,-2.36361 0.811389,-1.51694 0.811389,-3.38667 0,-1.86972 -0.811389,-3.38666 -0.811389,-1.51695 -2.257778,-2.36361 -1.411111,-0.88195 -3.175,-0.88195 -1.763889,0 -3.210278,0.88195 -1.411111,0.84666 -2.257778,2.36361 -0.811388,1.51694 -0.811388,3.38666 0,1.86973 0.811388,3.38667 0.846667,1.48167 2.257778,2.36361 1.446389,0.84667 3.210278,0.84667 z" />
        <path
           id="path849"
           style="font-style:normal;font-variant:normal;font-weight:bold;font-stretch:normal;font-size:35.27777863px;font-family:Comfortaa;-inkscape-font-specification:'Comfortaa Bold';fill:#124559;fill-opacity:1;stroke:#124559;stroke-width:1.5;stroke-miterlimit:4;stroke-dasharray:none;stroke-opacity:1"
           d="m 66.805238,175.57445 q -1.516944,0 -2.751666,-0.81139 -1.199445,-0.84667 -1.869723,-2.32833 -0.670277,-1.51695 -0.670277,-3.38667 v -19.26167 q 0,-0.77611 0.493889,-1.27 0.493888,-0.49389 1.27,-0.49389 0.776111,0 1.27,0.49389 0.493889,0.49389 0.493889,1.27 v 19.26167 q 0,1.30528 0.493888,2.15194 0.493889,0.84667 1.27,0.84667 h 0.881945 q 0.705555,0 1.128889,0.49389 0.458611,0.49389 0.458611,1.27 0,0.77611 -0.670278,1.27 -0.670278,0.49389 -1.728611,0.49389 z" />
      </g>
      <path
         id="path867-9"
         d="m 75.958174,177.90162 c -2.013035,0 -3.645719,-0.54472 -3.645719,-1.21524 0,-0.3667 0,-0.76783 0,-1.21524 0,-0.10562 0.05281,-0.2059 0.128758,-0.30381 0.406469,0.52336 1.819898,0.91143 3.516961,0.91143 1.697062,0 3.11049,-0.38807 3.516959,-0.91143 0.07595,0.0979 0.12876,0.19819 0.12876,0.30381 0,0.35187 0,0.72511 0,1.21524 0,0.67052 -1.632978,1.21524 -3.645719,1.21524 z m 0,-2.43048 c -2.013035,0 -3.645719,-0.54472 -3.645719,-1.21524 0,-0.367 0,-0.76754 0,-1.21524 0,-0.0644 0.02432,-0.12698 0.05696,-0.18899 v 0 c 0.0184,-0.0388 0.04272,-0.0771 0.07179,-0.11482 0.406469,0.52307 1.819898,0.91143 3.516961,0.91143 1.697062,0 3.11049,-0.38836 3.516959,-0.91143 0.02906,0.0377 0.0534,0.076 0.07179,0.11482 v 0 c 0.03264,0.062 0.05697,0.12461 0.05697,0.18899 0,0.35187 0,0.72482 0,1.21524 0,0.67052 -1.632978,1.21524 -3.645719,1.21524 z m 0,-2.43048 c -2.013035,0 -3.645719,-0.54443 -3.645719,-1.21524 0,-0.19196 0,-0.39489 0,-0.60762 0,-0.19314 0,-0.39371 0,-0.60762 0,-0.67081 1.632684,-1.21524 3.645719,-1.21524 2.012741,0 3.645719,0.54443 3.645719,1.21524 0,0.18959 0,0.39074 0,0.60762 0,0.18603 0,0.38214 0,0.60762 0,0.67081 -1.632978,1.21524 -3.645719,1.21524 z m 0,-3.0381 c -1.342223,0 -2.43048,0.27148 -2.43048,0.60762 0,0.33615 1.088257,0.60762 2.43048,0.60762 1.342223,0 2.43048,-0.27147 2.43048,-0.60762 0,-0.33614 -1.088257,-0.60762 -2.43048,-0.60762 z"
         style="fill:#598392;fill-opacity:1;stroke-width:0.26458332;stroke-miterlimit:4;stroke-dasharray:none" />
    </g>
  </g>
</svg>
