<?xml version="1.0" encoding="UTF-8" standalone="no"?>
<svg
   xmlns:dc="http://purl.org/dc/elements/1.1/"
   xmlns:cc="http://creativecommons.org/ns#"
   xmlns:rdf="http://www.w3.org/1999/02/22-rdf-syntax-ns#"
   xmlns:svg="http://www.w3.org/2000/svg"
   xmlns="http://www.w3.org/2000/svg"
   id="svg8"
   version="1.1"
   viewBox="0 0 43.922873 37.30695"
   height="37.30695mm"
   width="43.922874mm">
  <defs
     id="defs2" />
  <metadata
     id="metadata5">
    <rdf:RDF>
      <cc:Work
         rdf:about="">
        <dc:format>image/svg+xml</dc:format>
        <dc:type
           rdf:resource="http://purl.org/dc/dcmitype/StillImage" />
        <dc:title></dc:title>
      </cc:Work>
    </rdf:RDF>
  </metadata>
  <g
     transform="translate(-91.166515,-148.0225)"
     id="layer1">
    <g
       id="g1568">
      <g
         id="text817-4-3"
         style="font-style:normal;font-weight:normal;font-size:7.05555534px;line-height:125%;font-family:'Times New Roman';-inkscape-font-specification:'Times New Roman';text-align:end;letter-spacing:0px;word-spacing:0px;text-anchor:end;fill:#ececec;fill-opacity:1;stroke:#ececec;stroke-width:1.5;stroke-linecap:butt;stroke-linejoin:miter;stroke-miterlimit:4;stroke-dasharray:none;stroke-opacity:1"
         aria-label="ql">
        <path
           id="path877"
           style="font-style:normal;font-variant:normal;font-weight:bold;font-stretch:normal;font-size:35.27777863px;font-family:Comfortaa;-inkscape-font-specification:'Comfortaa Bold';fill:#ececec;fill-opacity:1;stroke:#ececec;stroke-width:1.5;stroke-miterlimit:4;stroke-dasharray:none;stroke-opacity:1"
           d="m 101.65318,156.88639 q 2.71639,0 4.90361,1.30528 2.2225,1.27 3.4925,3.52778 1.30528,2.2225 1.30528,4.97416 v 16.08667 q 0,0.81139 -0.49389,1.30528 -0.49389,0.49389 -1.30528,0.49389 -0.77611,0 -1.30527,-0.49389 -0.49389,-0.49389 -0.49389,-1.30528 v -9.525 q -1.23472,1.51695 -2.99861,2.36361 -1.76389,0.84667 -3.81,0.84667 -2.540004,0 -4.621393,-1.27 -2.046111,-1.27 -3.245555,-3.4925 -1.164167,-2.25778 -1.164167,-5.00945 0,-2.75166 1.27,-4.97416 1.27,-2.25778 3.4925,-3.52778 2.257778,-1.30528 4.974165,-1.30528 z m 0,16.40417 q 1.76389,0 3.175,-0.84667 1.44639,-0.88194 2.25778,-2.36361 0.81139,-1.51694 0.81139,-3.38667 0,-1.86972 -0.81139,-3.38666 -0.81139,-1.51695 -2.25778,-2.36361 -1.41111,-0.88195 -3.175,-0.88195 -1.763887,0 -3.210276,0.88195 -1.411111,0.84666 -2.257778,2.36361 -0.811389,1.51694 -0.811389,3.38666 0,1.86973 0.811389,3.38667 0.846667,1.48167 2.257778,2.36361 1.446389,0.84667 3.210276,0.84667 z" />
        <path
           id="path879"
           style="font-style:normal;font-variant:normal;font-weight:bold;font-stretch:normal;font-size:35.27777863px;font-family:Comfortaa;-inkscape-font-specification:'Comfortaa Bold';fill:#ececec;fill-opacity:1;stroke:#ececec;stroke-width:1.5;stroke-miterlimit:4;stroke-dasharray:none;stroke-opacity:1"
           d="m 122.29065,176.32445 q -1.51694,0 -2.75167,-0.81139 -1.19944,-0.84667 -1.86972,-2.32833 -0.67028,-1.51695 -0.67028,-3.38667 v -19.26167 q 0,-0.77611 0.49389,-1.27 0.49389,-0.49389 1.27,-0.49389 0.77611,0 1.27,0.49389 0.49389,0.49389 0.49389,1.27 v 19.26167 q 0,1.30528 0.49389,2.15194 0.49389,0.84667 1.27,0.84667 h 0.88195 q 0.70555,0 1.12888,0.49389 0.45862,0.49389 0.45862,1.27 0,0.77611 -0.67028,1.27 -0.67028,0.49389 -1.72861,0.49389 z" />
      </g>
      <path
         id="path867"
         d="m 131.44359,177.90162 c -2.01303,0 -3.64572,-0.54472 -3.64572,-1.21524 0,-0.3667 0,-0.76783 0,-1.21524 0,-0.10562 0.0528,-0.2059 0.12876,-0.30381 0.40647,0.52336 1.8199,0.91143 3.51696,0.91143 1.69706,0 3.11049,-0.38807 3.51696,-0.91143 0.0759,0.0979 0.12876,0.19819 0.12876,0.30381 0,0.35187 0,0.72511 0,1.21524 0,0.67052 -1.63298,1.21524 -3.64572,1.21524 z m 0,-2.43048 c -2.01303,0 -3.64572,-0.54472 -3.64572,-1.21524 0,-0.367 0,-0.76754 0,-1.21524 0,-0.0644 0.0243,-0.12698 0.057,-0.18899 v 0 c 0.0184,-0.0388 0.0427,-0.0771 0.0718,-0.11482 0.40647,0.52307 1.8199,0.91143 3.51696,0.91143 1.69706,0 3.11049,-0.38836 3.51696,-0.91143 0.0291,0.0377 0.0534,0.076 0.0718,0.11482 v 0 c 0.0326,0.062 0.057,0.12461 0.057,0.18899 0,0.35187 0,0.72482 0,1.21524 0,0.67052 -1.63298,1.21524 -3.64572,1.21524 z m 0,-2.43048 c -2.01303,0 -3.64572,-0.54443 -3.64572,-1.21524 0,-0.19196 0,-0.39489 0,-0.60762 0,-0.19314 0,-0.39371 0,-0.60762 0,-0.67081 1.63269,-1.21524 3.64572,-1.21524 2.01274,0 3.64572,0.54443 3.64572,1.21524 0,0.18959 0,0.39074 0,0.60762 0,0.18603 0,0.38214 0,0.60762 0,0.67081 -1.63298,1.21524 -3.64572,1.21524 z m 0,-3.0381 c -1.34222,0 -2.43048,0.27148 -2.43048,0.60762 0,0.33615 1.08826,0.60762 2.43048,0.60762 1.34222,0 2.43048,-0.27147 2.43048,-0.60762 0,-0.33614 -1.08826,-0.60762 -2.43048,-0.60762 z"
         style="fill:#598392;fill-opacity:1;stroke-width:0.26458332" />
    </g>
  </g>
</svg>
